<?xml version="1.0" encoding="utf-8"?>
<!-- Generator: Adobe Illustrator 19.0.1, SVG Export Plug-In . SVG Version: 6.00 Build 0)  -->
<svg version="1.1" id="Слой_1" xmlns="http://www.w3.org/2000/svg" xmlns:xlink="http://www.w3.org/1999/xlink" x="0px" y="0px"
	 viewBox="-80 81 139 139" style="enable-background:new -80 81 139 139;" xml:space="preserve">
<style type="text/css">
	.st0{fill:none;stroke:#FFFFFF;stroke-width:8.5039;stroke-miterlimit:10;}
</style>
<g id="Слой_2">
	<path id="XMLID_1_" class="st0" d="M-17.8,156.2c0,0,14,13.8,19.7,14.9l11.7-11.7c0,0,4.6-4.4,9.5,0.1l19.1,19.1
		c0,0,3.1,5.7-0.5,9.2l-9.3,9.3c0,0-16.4,10.5-42.7-6.3c0,0-12.4-6.5-23.9-18.2"/>
	<path id="XMLID_4_" class="st0" d="M-16.8,157.2c0,0-13.8-14-15-19.7l11.7-11.7c0,0,4.4-4.6-0.1-9.5l-19.2-19.1
		c0,0-5.7-3.1-9.2,0.5l-9.3,9.3c0,0-10.5,16.4,6.4,42.7c0,0,6.5,12.4,18.3,23.9"/>
</g>
</svg>
