<?xml version="1.0" encoding="utf-8"?>
<!-- Generator: Adobe Illustrator 19.0.1, SVG Export Plug-In . SVG Version: 6.00 Build 0)  -->
<svg version="1.1" id="Layer_1" xmlns="http://www.w3.org/2000/svg" xmlns:xlink="http://www.w3.org/1999/xlink" x="0px" y="0px"
	 viewBox="-125 127 48 48" style="enable-background:new -125 127 48 48;" xml:space="preserve">
<style type="text/css">
	.st0{fill:#FFFFFF;}
</style>
<path class="st0" d="M-88,147.5v4l-3.5,2l-2,3.5H-94c0,0,0,0,0,0v15c0,0,0,0,0,0c0,0.3-0.1,0.5-0.3,0.7c-0.2,0.2-0.4,0.3-0.7,0.3
	c0,0,0,0,0,0c-0.3,0-0.6-0.2-0.8-0.4l-5.2-5.2l-5.2,5.2c-0.2,0.2-0.5,0.4-0.8,0.4c0,0,0,0,0,0c-0.3,0-0.5-0.1-0.7-0.3
	c-0.2-0.2-0.3-0.4-0.3-0.7c0,0,0,0,0,0v-15c0,0,0,0,0,0h-0.5l-2-3.5l-3.5-2v-4l-2-3.5l2-3.5v-4l3.5-2l2-3.5h4l3.5-2l3.5,2h4l2,3.5
	l3.5,2v4l2,3.5L-88,147.5z M-106,157v12.6l4.2-4.2c0,0,0.1-0.1,0.1-0.1c0.2-0.2,0.5-0.3,0.7-0.3c0.3,0,0.5,0.1,0.7,0.3
	c0,0,0.1,0.1,0.1,0.1l4.2,4.2V157c0,0,0,0,0,0h-1.5l-3.5,2l-3.5-2L-106,157C-106,157-106,157-106,157z M-90,141.1v-3.4l-2.9-1.7
	l-1.7-2.9h-3.4l-2.9-1.7l-2.9,1.7h-3.4l-1.7,2.9l-2.9,1.7v3.4l-1.7,2.9l1.7,2.9v3.4l2.9,1.7l1.7,2.9h3.4l2.9,1.7l2.9-1.7h3.4
	l1.7-2.9l2.9-1.7v-3.4l1.7-2.9L-90,141.1z"/>
</svg>
