<?xml version="1.0" encoding="utf-8"?>
<!-- Generator: Adobe Illustrator 19.0.1, SVG Export Plug-In . SVG Version: 6.00 Build 0)  -->
<svg version="1.1" id="Layer_1" xmlns:sketch="http://www.bohemiancoding.com/sketch/ns"
	 xmlns="http://www.w3.org/2000/svg" xmlns:xlink="http://www.w3.org/1999/xlink" x="0px" y="0px" viewBox="-137 139 24 24"
	 style="enable-background:new -137 139 24 24;" xml:space="preserve">
<style type="text/css">
	.st0{fill:none;stroke:#FFFFFF;stroke-miterlimit:10;}
</style>
<title></title>
<desc></desc>
<g id="miu">
	<g id="Artboard-1" transform="translate(-647.000000, -551.000000)">
		<g id="slice" transform="translate(215.000000, 119.000000)">
		</g>
		<path id="device-volume-loudspeaker-speaker-up-outline-stroke" class="st0" d="M513.5,702.1l-1.9,0.9c-1,0.4-0.5,1.4-0.5,1.4
			l1.7,3.9c0,0,0.4,1,1.4,0.5l1.9-0.9l9.1,1.2l-6.5-14.6L513.5,702.1L513.5,702.1z M511.9,703.9l1.8,3.9l1.9-0.9l7.9,0.7l-4.9-11
			l-4.7,6.3L511.9,703.9z M524.8,692c2.7,0.9,5,2.9,6.3,5.7c1.3,2.9,1.2,6,0,8.7l-1-0.2c1.2-2.4,1.3-5.4,0.1-8
			c-1.1-2.6-3.3-4.4-5.8-5.2L524.8,692z M523.4,695c2.2,0.6,4.1,2.2,5.1,4.4c0.9,2.1,0.9,4.4,0.1,6.4l-1-0.2c0.8-1.8,0.9-3.8,0-5.7
			c-0.9-2-2.6-3.4-4.6-3.9L523.4,695z M522.1,697.7c1.6,0.3,3,1.3,3.7,2.9c0.7,1.5,0.5,3.1-0.2,4.4l-1-0.3c0.7-1.1,0.8-2.5,0.3-3.8
			c-0.6-1.3-1.8-2.2-3.2-2.3L522.1,697.7L522.1,697.7z"/>
	</g>
</g>
</svg>
