<?xml version="1.0" encoding="utf-8"?>
<!-- Generator: Adobe Illustrator 19.0.1, SVG Export Plug-In . SVG Version: 6.00 Build 0)  -->
<svg version="1.1" id="Layer_1" xmlns="http://www.w3.org/2000/svg" xmlns:xlink="http://www.w3.org/1999/xlink" x="0px" y="0px"
	 viewBox="-133 135 32 32" style="enable-background:new -133 135 32 32;" xml:space="preserve">
<style type="text/css">
	.st0{stroke:#FFFFFF;stroke-miterlimit:10;}
	.st1{fill:#FFFFFF;stroke:#FFFFFF;stroke-miterlimit:10;}
</style>
<title></title>
<path class="st0" d="M-119,154.5v2c0,0.8,0.7,1.5,1.5,1.5s1.5-0.7,1.5-1.5v-2c0-0.8-0.7-1.5-1.5-1.5S-119,153.7-119,154.5z
	 M-117,154.5v2c0,0.3-0.2,0.5-0.5,0.5s-0.5-0.2-0.5-0.5v-2c0-0.3,0.2-0.5,0.5-0.5S-117,154.2-117,154.5z"/>
<path class="st0" d="M-111,144.5c0-3.6-2.9-6.5-6.5-6.5s-6.5,2.9-6.5,6.5c0,1.8,0.7,3.5,2,4.7l0.9,12.8c0,1,1.8,2,3.5,2s3.5-1,3.5-2
	l0.9-12.8C-111.8,148-111,146.3-111,144.5z M-117.5,139c2.9-0.1,5.3,2.1,5.5,5h-11C-122.8,141.1-120.4,138.9-117.5,139z M-123,145
	h11c-0.2,2.9-2.6,5.1-5.5,5C-120.4,150.1-122.8,147.9-123,145z M-115,162c-0.6,0.7-1.6,1.1-2.5,1c-0.9,0.1-1.9-0.3-2.5-1l-0.9-12
	c2.1,1.3,4.7,1.3,6.8,0L-115,162z"/>
<circle class="st1" cx="-117.5" cy="142.5" r="0.3"/>
<circle class="st1" cx="-121.4" cy="142.7" r="0.3"/>
<circle class="st1" cx="-113.6" cy="142.7" r="0.3"/>
<circle class="st1" cx="-117.5" cy="140.2" r="0.3"/>
<circle class="st1" cx="-119.9" cy="140.9" r="0.3"/>
<circle class="st1" cx="-115.1" cy="140.9" r="0.3"/>
<circle class="st1" cx="-119.4" cy="143" r="0.3"/>
<circle class="st1" cx="-115.5" cy="143" r="0.3"/>
</svg>
