<?xml version="1.0" encoding="utf-8"?>
<!-- Generator: Adobe Illustrator 19.0.1, SVG Export Plug-In . SVG Version: 6.00 Build 0)  -->
<svg version="1.1" id="Layer_1" xmlns="http://www.w3.org/2000/svg" xmlns:xlink="http://www.w3.org/1999/xlink" x="0px" y="0px"
	 viewBox="0 0 300 300" style="enable-background:new 0 0 300 300;" xml:space="preserve">
<style type="text/css">
	.st0{fill:none;stroke:#FFFFFF;stroke-width:11.3386;stroke-miterlimit:10;}
	.st1{fill:#FFFFFF;}
</style>
<circle class="st0" cx="150.3" cy="149.8" r="130"/>
<g>
	<path class="st1" d="M133.6,182.6v-6.3c0-7.2,1.3-13.1,3.9-17.9c2.6-4.8,7.2-9.7,13.7-14.7c7.7-6.1,12.7-10.9,15-14.3
		c2.2-3.4,3.4-7.4,3.4-12.1c0-5.5-1.8-9.7-5.5-12.6s-8.9-4.4-15.7-4.4c-6.2,0-11.9,0.9-17.2,2.6s-10.4,3.9-15.4,6.3l-8.2-17.2
		c13.2-7.4,27.4-11,42.5-11c12.8,0,22.9,3.1,30.4,9.4s11.2,14.9,11.2,25.9c0,4.9-0.7,9.2-2.1,13s-3.6,7.4-6.5,10.9
		c-2.9,3.5-7.9,7.9-15,13.5c-6.1,4.8-10.1,8.7-12.2,11.8s-3.1,7.3-3.1,12.6v4.4H133.6z M129.6,213.8c0-9.8,4.8-14.7,14.4-14.7
		c4.7,0,8.3,1.3,10.7,3.9c2.5,2.6,3.7,6.2,3.7,10.9c0,4.6-1.3,8.3-3.8,11c-2.5,2.7-6.1,4.1-10.7,4.1s-8.2-1.3-10.6-4
		S129.6,218.5,129.6,213.8z"/>
</g>
</svg>
