<?xml version="1.0" encoding="utf-8"?>
<!-- Generator: Adobe Illustrator 19.0.1, SVG Export Plug-In . SVG Version: 6.00 Build 0)  -->
<svg version="1.1" id="Layer_1" xmlns="http://www.w3.org/2000/svg" xmlns:xlink="http://www.w3.org/1999/xlink" x="0px" y="0px"
	 viewBox="-133 135 32 32" style="enable-background:new -133 135 32 32;" xml:space="preserve">
<g id="clock">
	<circle cx="-117" cy="145" r="1"/>
	<circle cx="-117" cy="157" r="1"/>
	<circle cx="-123" cy="151" r="1"/>
	<circle cx="-111" cy="151" r="1"/>
	<circle cx="-121.2" cy="155.2" r="1"/>
	<circle cx="-121.2" cy="146.8" r="1"/>
	<circle cx="-112.8" cy="155.2" r="1"/>
	<path d="M-107,149c-0.1,0-0.1,0-0.2,0c-0.3-1.7-1.2-3.3-2.3-4.6l-1.4-7.8c-0.2-0.9-1-1.6-2-1.6h-8c-1,0-1.8,0.7-2,1.6l-1.4,7.5
		c-1.7,1.8-2.7,4.2-2.7,6.8c0,2.6,1,4.9,2.6,6.7l1.4,7.7c0.2,0.9,1,1.6,2,1.6h8c1,0,1.8-0.7,2-1.6l1.4-7.7c1.2-1.3,2.1-2.9,2.4-4.7
		c0.1,0,0.1,0,0.2,0c1.1,0,2-0.9,2-2C-105,149.9-105.9,149-107,149z M-120.9,137h8l1,5.4c-1.5-0.9-3.2-1.4-5-1.4
		c-1.8,0-3.5,0.5-5,1.4L-120.9,137z M-113,165h-8l-1-5.4c1.5,0.9,3.2,1.4,5,1.4c1.8,0,3.5-0.5,5-1.4L-113,165z M-117,159
		c-4.4,0-8-3.6-8-8c0-4.4,3.6-8,8-8c4.4,0,8,3.6,8,8C-109,155.4-112.6,159-117,159z"/>
	<path d="M-112.1,146c-0.1-0.1-0.3-0.1-0.5,0l-5.2,4.3c-0.2,0.2-0.3,0.4-0.3,0.7c0,0.3,0.1,0.5,0.3,0.7c0.2,0.2,0.4,0.3,0.7,0.3
		c0.3,0,0.5-0.1,0.7-0.3l1.8-2.2l2.4-3C-111.9,146.3-111.9,146.1-112.1,146z"/>
</g>
</svg>
