<?xml version="1.0" encoding="utf-8"?>
<!-- Generator: Adobe Illustrator 19.0.1, SVG Export Plug-In . SVG Version: 6.00 Build 0)  -->
<svg version="1.1" id="Layer_1" xmlns="http://www.w3.org/2000/svg" xmlns:xlink="http://www.w3.org/1999/xlink" x="0px" y="0px"
	 viewBox="-124 126 50 50" style="enable-background:new -124 126 50 50;" xml:space="preserve">
<style type="text/css">
	.st0{fill:none;stroke:#FFFFFF;stroke-width:2;stroke-linecap:round;stroke-miterlimit:10;}
	.st1{fill:none;stroke:#FFFFFF;stroke-width:2;stroke-linejoin:round;stroke-miterlimit:10;}
	.st2{fill:none;stroke:#FFFFFF;stroke-width:2;stroke-miterlimit:10;}
</style>
<path class="st0" d="M-106,165v4c0,1.1,0.9,2,2,2h10c1.1,0,2-0.9,2-2v-4H-106z"/>
<path class="st1" d="M-92,165c0-1,0-4,0-6c0-5.4,7-5.6,7-15c0-7.7-6.3-14-14-14s-14,6.3-14,14c0,9.6,7,10.7,7,15c0,1.3,0,6,0,6"/>
<path class="st0" d="M-96,171c0,1.7-1.3,3-3,3s-3-1.3-3-3"/>
<line class="st2" x1="-99" y1="149" x2="-99" y2="162"/>
<polyline class="st0" points="-103,145 -99,149 -95,145 "/>
</svg>
