<?xml version="1.0" encoding="utf-8"?>
<!-- Generator: Adobe Illustrator 19.0.1, SVG Export Plug-In . SVG Version: 6.00 Build 0)  -->
<svg version="1.1" id="Layer_1" xmlns="http://www.w3.org/2000/svg" xmlns:xlink="http://www.w3.org/1999/xlink" x="0px" y="0px"
	 viewBox="0 0 50 50" style="enable-background:new 0 0 50 50;" xml:space="preserve">
<style type="text/css">
	.st0{fill:#392F85;}
	.st1{fill:#4C469C;}
</style>
<path class="st0" d="M33.2,40.8H16.6c-2.8,0-5-2.3-5-5V22.6c0-2.8,2.3-5,5-5h16.7c2.8,0,5,2.3,5,5v13.2C38.2,38.5,36,40.8,33.2,40.8
	z"/>
<path class="st1" d="M48.2,22L26.4,33.6c-0.7,0.7-1.9,0.7-2.6,0L2.1,22c-0.7-0.7-0.7-1.9,0-2.6L23.8,7.9c0.7-0.7,1.9-0.7,2.6,0
	l21.7,11.5C48.9,20.1,48.9,21.3,48.2,22z"/>
<path class="st1" d="M47.7,29.5L47.7,29.5c-0.6,0-1-0.5-1-1v-7.6c0-0.6,0.5-1,1-1h0c0.6,0,1,0.5,1,1v7.6
	C48.7,29,48.2,29.5,47.7,29.5z"/>
</svg>
